<svg aria-roledescription="er" role="graphics-document document" viewBox="0 0 724.4806518554688 430" style="max-width: 100%;" xmlns="http://www.w3.org/2000/svg" width="100%" id="graph-div" height="100%" xmlns:xlink="http://www.w3.org/1999/xlink"><style>@import url("https://cdnjs.cloudflare.com/ajax/libs/font-awesome/6.5.1/css/all.min.css");'</style><style>#graph-div{font-family:"trebuchet ms",verdana,arial,sans-serif;font-size:16px;fill:#333;}#graph-div .error-icon{fill:#552222;}#graph-div .error-text{fill:#552222;stroke:#552222;}#graph-div .edge-thickness-normal{stroke-width:2px;}#graph-div .edge-thickness-thick{stroke-width:3.5px;}#graph-div .edge-pattern-solid{stroke-dasharray:0;}#graph-div .edge-pattern-dashed{stroke-dasharray:3;}#graph-div .edge-pattern-dotted{stroke-dasharray:2;}#graph-div .marker{fill:#333333;stroke:#333333;}#graph-div .marker.cross{stroke:#333333;}#graph-div svg{font-family:"trebuchet ms",verdana,arial,sans-serif;font-size:16px;}#graph-div .entityBox{fill:#ECECFF;stroke:#9370DB;}#graph-div .attributeBoxOdd{fill:#ffffff;stroke:#9370DB;}#graph-div .attributeBoxEven{fill:#f2f2f2;stroke:#9370DB;}#graph-div .relationshipLabelBox{fill:hsl(80, 100%, 96.2745098039%);opacity:0.7;background-color:hsl(80, 100%, 96.2745098039%);}#graph-div .relationshipLabelBox rect{opacity:0.5;}#graph-div .relationshipLine{stroke:#333333;}#graph-div .entityTitleText{text-anchor:middle;font-size:18px;fill:#333;}#graph-div #MD_PARENT_START{fill:#f5f5f5!important;stroke:#333333!important;stroke-width:1;}#graph-div #MD_PARENT_END{fill:#f5f5f5!important;stroke:#333333!important;stroke-width:1;}#graph-div :root{--mermaid-font-family:"trebuchet ms",verdana,arial,sans-serif;}</style><g></g><defs><marker orient="auto" markerHeight="240" markerWidth="190" refY="7" refX="0" id="MD_PARENT_START"><path d="M 18,7 L9,13 L1,7 L9,1 Z"></path></marker></defs><defs><marker orient="auto" markerHeight="28" markerWidth="20" refY="7" refX="19" id="MD_PARENT_END"><path d="M 18,7 L9,13 L1,7 L9,1 Z"></path></marker></defs><defs><marker orient="auto" markerHeight="18" markerWidth="18" refY="9" refX="0" id="ONLY_ONE_START"><path d="M9,0 L9,18 M15,0 L15,18" fill="none" stroke="gray"></path></marker></defs><defs><marker orient="auto" markerHeight="18" markerWidth="18" refY="9" refX="18" id="ONLY_ONE_END"><path d="M3,0 L3,18 M9,0 L9,18" fill="none" stroke="gray"></path></marker></defs><defs><marker orient="auto" markerHeight="18" markerWidth="30" refY="9" refX="0" id="ZERO_OR_ONE_START"><circle r="6" cy="9" cx="21" fill="white" stroke="gray"></circle><path d="M9,0 L9,18" fill="none" stroke="gray"></path></marker></defs><defs><marker orient="auto" markerHeight="18" markerWidth="30" refY="9" refX="30" id="ZERO_OR_ONE_END"><circle r="6" cy="9" cx="9" fill="white" stroke="gray"></circle><path d="M21,0 L21,18" fill="none" stroke="gray"></path></marker></defs><defs><marker orient="auto" markerHeight="36" markerWidth="45" refY="18" refX="18" id="ONE_OR_MORE_START"><path d="M0,18 Q 18,0 36,18 Q 18,36 0,18 M42,9 L42,27" fill="none" stroke="gray"></path></marker></defs><defs><marker orient="auto" markerHeight="36" markerWidth="45" refY="18" refX="27" id="ONE_OR_MORE_END"><path d="M3,9 L3,27 M9,18 Q27,0 45,18 Q27,36 9,18" fill="none" stroke="gray"></path></marker></defs><defs><marker orient="auto" markerHeight="36" markerWidth="57" refY="18" refX="18" id="ZERO_OR_MORE_START"><circle r="6" cy="18" cx="48" fill="white" stroke="gray"></circle><path d="M0,18 Q18,0 36,18 Q18,36 0,18" fill="none" stroke="gray"></path></marker></defs><defs><marker orient="auto" markerHeight="36" markerWidth="57" refY="18" refX="39" id="ZERO_OR_MORE_END"><circle r="6" cy="18" cx="9" fill="white" stroke="gray"></circle><path d="M21,18 Q39,0 57,18 Q39,36 21,18" fill="none" stroke="gray"></path></marker></defs><path style="stroke: gray; fill: none;" marker-start="url(#ONE_OR_MORE_START)" marker-end="url(#ZERO_OR_MORE_END)" d="M108.428,176L108.428,184.333C108.428,192.667,108.428,209.333,136.682,230.598C164.935,251.863,221.442,277.726,249.695,290.658L277.949,303.589" class="er relationshipLine"></path><path style="stroke: gray; fill: none;" marker-start="url(#ZERO_OR_MORE_START)" marker-end="url(#ZERO_OR_MORE_END)" d="M364.055,121L364.055,138.5C364.055,156,364.055,191,364.055,216.833C364.055,242.667,364.055,259.333,364.055,267.667L364.055,276" class="er relationshipLine"></path><path style="stroke: gray; fill: none;" marker-start="url(#ONLY_ONE_START)" marker-end="url(#ONE_OR_MORE_END)" d="M617.867,132L617.867,147.667C617.867,163.333,617.867,194.667,589.916,223.218C561.965,251.769,506.063,277.538,478.112,290.423L450.162,303.307" class="er relationshipLine"></path><g transform="translate(20,20 )" id="entity-Autor-1b244e67-37b5-58e9-a073-38d592162412"><rect height="156" width="176.85662841796875" y="0" x="0" class="er entityBox"></rect><text transform="translate(88.42831420898438,12)" style="dominant-baseline: middle; text-anchor: middle; font-size: 12px;" y="0" x="0" id="text-entity-Autor-1b244e67-37b5-58e9-a073-38d592162412" class="er entityLabel">Autor</text><rect height="22" width="37.854278564453125" y="24" x="0" class="er attributeBoxOdd"></rect><text transform="translate(5,35)" style="dominant-baseline: middle; font-size: 10.2px;" y="0" x="0" id="text-entity-Autor-1b244e67-37b5-58e9-a073-38d592162412-attr-1-type" class="er entityLabel">char</text><rect height="22" width="55.883514404296875" y="24" x="37.854278564453125" class="er attributeBoxOdd"></rect><text transform="translate(42.854278564453125,35)" style="dominant-baseline: middle; font-size: 10.2px;" y="0" x="0" id="text-entity-Autor-1b244e67-37b5-58e9-a073-38d592162412-attr-1-name" class="er entityLabel">jmeno</text><rect height="22" width="83.11883544921875" y="24" x="93.73779296875" class="er attributeBoxOdd"></rect><text transform="translate(98.73779296875,35)" style="dominant-baseline: middle; font-size: 10.2px;" y="0" x="0" id="text-entity-Autor-1b244e67-37b5-58e9-a073-38d592162412-attr-1-comment" class="er entityLabel">Jméno autora</text><rect height="22" width="37.854278564453125" y="46" x="0" class="er attributeBoxEven"></rect><text transform="translate(5,57)" style="dominant-baseline: middle; font-size: 10.2px;" y="0" x="0" id="text-entity-Autor-1b244e67-37b5-58e9-a073-38d592162412-attr-2-type" class="er entityLabel">char</text><rect height="22" width="55.883514404296875" y="46" x="37.854278564453125" class="er attributeBoxEven"></rect><text transform="translate(42.854278564453125,57)" style="dominant-baseline: middle; font-size: 10.2px;" y="0" x="0" id="text-entity-Autor-1b244e67-37b5-58e9-a073-38d592162412-attr-2-name" class="er entityLabel">prijmeni</text><rect height="22" width="83.11883544921875" y="46" x="93.73779296875" class="er attributeBoxEven"></rect><text transform="translate(98.73779296875,57)" style="dominant-baseline: middle; font-size: 10.2px;" y="0" x="0" id="text-entity-Autor-1b244e67-37b5-58e9-a073-38d592162412-attr-2-comment" class="er entityLabel">Příjmení autora</text><rect height="22" width="37.854278564453125" y="68" x="0" class="er attributeBoxOdd"></rect><text transform="translate(5,79)" style="dominant-baseline: middle; font-size: 10.2px;" y="0" x="0" id="text-entity-Autor-1b244e67-37b5-58e9-a073-38d592162412-attr-3-type" class="er entityLabel">date</text><rect height="22" width="55.883514404296875" y="68" x="37.854278564453125" class="er attributeBoxOdd"></rect><text transform="translate(42.854278564453125,79)" style="dominant-baseline: middle; font-size: 10.2px;" y="0" x="0" id="text-entity-Autor-1b244e67-37b5-58e9-a073-38d592162412-attr-3-name" class="er entityLabel">narozeni</text><rect height="22" width="83.11883544921875" y="68" x="93.73779296875" class="er attributeBoxOdd"></rect><text transform="translate(98.73779296875,79)" style="dominant-baseline: middle; font-size: 10.2px;" y="0" x="0" id="text-entity-Autor-1b244e67-37b5-58e9-a073-38d592162412-attr-3-comment" class="er entityLabel">Datum narození</text><rect height="22" width="37.854278564453125" y="90" x="0" class="er attributeBoxEven"></rect><text transform="translate(5,101)" style="dominant-baseline: middle; font-size: 10.2px;" y="0" x="0" id="text-entity-Autor-1b244e67-37b5-58e9-a073-38d592162412-attr-4-type" class="er entityLabel">date</text><rect height="22" width="55.883514404296875" y="90" x="37.854278564453125" class="er attributeBoxEven"></rect><text transform="translate(42.854278564453125,101)" style="dominant-baseline: middle; font-size: 10.2px;" y="0" x="0" id="text-entity-Autor-1b244e67-37b5-58e9-a073-38d592162412-attr-4-name" class="er entityLabel">umrti</text><rect height="22" width="83.11883544921875" y="90" x="93.73779296875" class="er attributeBoxEven"></rect><text transform="translate(98.73779296875,101)" style="dominant-baseline: middle; font-size: 10.2px;" y="0" x="0" id="text-entity-Autor-1b244e67-37b5-58e9-a073-38d592162412-attr-4-comment" class="er entityLabel">Datum úmrtí</text><rect height="22" width="37.854278564453125" y="112" x="0" class="er attributeBoxOdd"></rect><text transform="translate(5,123)" style="dominant-baseline: middle; font-size: 10.2px;" y="0" x="0" id="text-entity-Autor-1b244e67-37b5-58e9-a073-38d592162412-attr-5-type" class="er entityLabel">text</text><rect height="22" width="55.883514404296875" y="112" x="37.854278564453125" class="er attributeBoxOdd"></rect><text transform="translate(42.854278564453125,123)" style="dominant-baseline: middle; font-size: 10.2px;" y="0" x="0" id="text-entity-Autor-1b244e67-37b5-58e9-a073-38d592162412-attr-5-name" class="er entityLabel">biografie</text><rect height="22" width="83.11883544921875" y="112" x="93.73779296875" class="er attributeBoxOdd"></rect><text transform="translate(98.73779296875,123)" style="dominant-baseline: middle; font-size: 10.2px;" y="0" x="0" id="text-entity-Autor-1b244e67-37b5-58e9-a073-38d592162412-attr-5-comment" class="er entityLabel">Životopis</text><rect height="22" width="37.854278564453125" y="134" x="0" class="er attributeBoxEven"></rect><text transform="translate(5,145)" style="dominant-baseline: middle; font-size: 10.2px;" y="0" x="0" id="text-entity-Autor-1b244e67-37b5-58e9-a073-38d592162412-attr-6-type" class="er entityLabel">image</text><rect height="22" width="55.883514404296875" y="134" x="37.854278564453125" class="er attributeBoxEven"></rect><text transform="translate(42.854278564453125,145)" style="dominant-baseline: middle; font-size: 10.2px;" y="0" x="0" id="text-entity-Autor-1b244e67-37b5-58e9-a073-38d592162412-attr-6-name" class="er entityLabel">fotografie</text><rect height="22" width="83.11883544921875" y="134" x="93.73779296875" class="er attributeBoxEven"></rect><text transform="translate(98.73779296875,145)" style="dominant-baseline: middle; font-size: 10.2px;" y="0" x="0" id="text-entity-Autor-1b244e67-37b5-58e9-a073-38d592162412-attr-6-comment" class="er entityLabel">Fotografie</text></g><g transform="translate(277.9488296508789,276 )" id="entity-Kniha-8f5278b1-469f-58f6-ae58-08b07ffeab5d"><rect height="134" width="172.21270751953125" y="0" x="0" class="er entityBox"></rect><text transform="translate(86.10635375976562,12)" style="dominant-baseline: middle; text-anchor: middle; font-size: 12px;" y="0" x="0" id="text-entity-Kniha-8f5278b1-469f-58f6-ae58-08b07ffeab5d" class="er entityLabel">Kniha</text><rect height="22" width="37.854278564453125" y="24" x="0" class="er attributeBoxOdd"></rect><text transform="translate(5,35)" style="dominant-baseline: middle; font-size: 10.2px;" y="0" x="0" id="text-entity-Kniha-8f5278b1-469f-58f6-ae58-08b07ffeab5d-attr-1-type" class="er entityLabel">char</text><rect height="22" width="64.65908813476562" y="24" x="37.854278564453125" class="er attributeBoxOdd"></rect><text transform="translate(42.854278564453125,35)" style="dominant-baseline: middle; font-size: 10.2px;" y="0" x="0" id="text-entity-Kniha-8f5278b1-469f-58f6-ae58-08b07ffeab5d-attr-1-name" class="er entityLabel">titul</text><rect height="22" width="69.6993408203125" y="24" x="102.51336669921875" class="er attributeBoxOdd"></rect><text transform="translate(107.51336669921875,35)" style="dominant-baseline: middle; font-size: 10.2px;" y="0" x="0" id="text-entity-Kniha-8f5278b1-469f-58f6-ae58-08b07ffeab5d-attr-1-comment" class="er entityLabel">Titul knihy</text><rect height="22" width="37.854278564453125" y="46" x="0" class="er attributeBoxEven"></rect><text transform="translate(5,57)" style="dominant-baseline: middle; font-size: 10.2px;" y="0" x="0" id="text-entity-Kniha-8f5278b1-469f-58f6-ae58-08b07ffeab5d-attr-2-type" class="er entityLabel">text</text><rect height="22" width="64.65908813476562" y="46" x="37.854278564453125" class="er attributeBoxEven"></rect><text transform="translate(42.854278564453125,57)" style="dominant-baseline: middle; font-size: 10.2px;" y="0" x="0" id="text-entity-Kniha-8f5278b1-469f-58f6-ae58-08b07ffeab5d-attr-2-name" class="er entityLabel">obsah</text><rect height="22" width="69.6993408203125" y="46" x="102.51336669921875" class="er attributeBoxEven"></rect><text transform="translate(107.51336669921875,57)" style="dominant-baseline: middle; font-size: 10.2px;" y="0" x="0" id="text-entity-Kniha-8f5278b1-469f-58f6-ae58-08b07ffeab5d-attr-2-comment" class="er entityLabel">Obsah knihy</text><rect height="22" width="37.854278564453125" y="68" x="0" class="er attributeBoxOdd"></rect><text transform="translate(5,79)" style="dominant-baseline: middle; font-size: 10.2px;" y="0" x="0" id="text-entity-Kniha-8f5278b1-469f-58f6-ae58-08b07ffeab5d-attr-3-type" class="er entityLabel">int</text><rect height="22" width="64.65908813476562" y="68" x="37.854278564453125" class="er attributeBoxOdd"></rect><text transform="translate(42.854278564453125,79)" style="dominant-baseline: middle; font-size: 10.2px;" y="0" x="0" id="text-entity-Kniha-8f5278b1-469f-58f6-ae58-08b07ffeab5d-attr-3-name" class="er entityLabel">pocet_stran</text><rect height="22" width="69.6993408203125" y="68" x="102.51336669921875" class="er attributeBoxOdd"></rect><text transform="translate(107.51336669921875,79)" style="dominant-baseline: middle; font-size: 10.2px;" y="0" x="0" id="text-entity-Kniha-8f5278b1-469f-58f6-ae58-08b07ffeab5d-attr-3-comment" class="er entityLabel">Počet stran</text><rect height="22" width="37.854278564453125" y="90" x="0" class="er attributeBoxEven"></rect><text transform="translate(5,101)" style="dominant-baseline: middle; font-size: 10.2px;" y="0" x="0" id="text-entity-Kniha-8f5278b1-469f-58f6-ae58-08b07ffeab5d-attr-4-type" class="er entityLabel">int</text><rect height="22" width="64.65908813476562" y="90" x="37.854278564453125" class="er attributeBoxEven"></rect><text transform="translate(42.854278564453125,101)" style="dominant-baseline: middle; font-size: 10.2px;" y="0" x="0" id="text-entity-Kniha-8f5278b1-469f-58f6-ae58-08b07ffeab5d-attr-4-name" class="er entityLabel">rok_vydani</text><rect height="22" width="69.6993408203125" y="90" x="102.51336669921875" class="er attributeBoxEven"></rect><text transform="translate(107.51336669921875,101)" style="dominant-baseline: middle; font-size: 10.2px;" y="0" x="0" id="text-entity-Kniha-8f5278b1-469f-58f6-ae58-08b07ffeab5d-attr-4-comment" class="er entityLabel">Rok vydání</text><rect height="22" width="37.854278564453125" y="112" x="0" class="er attributeBoxOdd"></rect><text transform="translate(5,123)" style="dominant-baseline: middle; font-size: 10.2px;" y="0" x="0" id="text-entity-Kniha-8f5278b1-469f-58f6-ae58-08b07ffeab5d-attr-5-type" class="er entityLabel">image</text><rect height="22" width="64.65908813476562" y="112" x="37.854278564453125" class="er attributeBoxOdd"></rect><text transform="translate(42.854278564453125,123)" style="dominant-baseline: middle; font-size: 10.2px;" y="0" x="0" id="text-entity-Kniha-8f5278b1-469f-58f6-ae58-08b07ffeab5d-attr-5-name" class="er entityLabel">obalka</text><rect height="22" width="69.6993408203125" y="112" x="102.51336669921875" class="er attributeBoxOdd"></rect><text transform="translate(107.51336669921875,123)" style="dominant-baseline: middle; font-size: 10.2px;" y="0" x="0" id="text-entity-Kniha-8f5278b1-469f-58f6-ae58-08b07ffeab5d-attr-5-comment" class="er entityLabel">Obálka knihy</text></g><g transform="translate(296.85662841796875,75 )" id="entity-Zanr-c380b749-e6e2-5241-8d37-78de2383085c"><rect height="46" width="134.39710998535156" y="0" x="0" class="er entityBox"></rect><text transform="translate(67.19855499267578,12)" style="dominant-baseline: middle; text-anchor: middle; font-size: 12px;" y="0" x="0" id="text-entity-Zanr-c380b749-e6e2-5241-8d37-78de2383085c" class="er entityLabel">Zanr</text><rect height="22" width="30.9822998046875" y="24" x="0" class="er attributeBoxOdd"></rect><text transform="translate(5,35)" style="dominant-baseline: middle; font-size: 10.2px;" y="0" x="0" id="text-entity-Zanr-c380b749-e6e2-5241-8d37-78de2383085c-attr-1-type" class="er entityLabel">char</text><rect height="22" width="37.33628845214844" y="24" x="30.9822998046875" class="er attributeBoxOdd"></rect><text transform="translate(35.9822998046875,35)" style="dominant-baseline: middle; font-size: 10.2px;" y="0" x="0" id="text-entity-Zanr-c380b749-e6e2-5241-8d37-78de2383085c-attr-1-name" class="er entityLabel">nazev</text><rect height="22" width="66.07852172851562" y="24" x="68.31858825683594" class="er attributeBoxOdd"></rect><text transform="translate(73.31858825683594,35)" style="dominant-baseline: middle; font-size: 10.2px;" y="0" x="0" id="text-entity-Zanr-c380b749-e6e2-5241-8d37-78de2383085c-attr-1-comment" class="er entityLabel">Název žánru</text></g><g transform="translate(531.2537384033203,64 )" id="entity-Vydavatelstvi-e33cbb6d-1489-584f-8090-e582253897a0"><rect height="68" width="173.22694396972656" y="0" x="0" class="er entityBox"></rect><text transform="translate(86.61347198486328,12)" style="dominant-baseline: middle; text-anchor: middle; font-size: 12px;" y="0" x="0" id="text-entity-Vydavatelstvi-e33cbb6d-1489-584f-8090-e582253897a0" class="er entityLabel">Vydavatelstvi</text><rect height="22" width="30.9822998046875" y="24" x="0" class="er attributeBoxOdd"></rect><text transform="translate(5,35)" style="dominant-baseline: middle; font-size: 10.2px;" y="0" x="0" id="text-entity-Vydavatelstvi-e33cbb6d-1489-584f-8090-e582253897a0-attr-1-type" class="er entityLabel">char</text><rect height="22" width="40.69810485839844" y="24" x="30.9822998046875" class="er attributeBoxOdd"></rect><text transform="translate(35.9822998046875,35)" style="dominant-baseline: middle; font-size: 10.2px;" y="0" x="0" id="text-entity-Vydavatelstvi-e33cbb6d-1489-584f-8090-e582253897a0-attr-1-name" class="er entityLabel">nazev</text><rect height="22" width="101.54653930664062" y="24" x="71.68040466308594" class="er attributeBoxOdd"></rect><text transform="translate(76.68040466308594,35)" style="dominant-baseline: middle; font-size: 10.2px;" y="0" x="0" id="text-entity-Vydavatelstvi-e33cbb6d-1489-584f-8090-e582253897a0-attr-1-comment" class="er entityLabel">Název vydavatelství</text><rect height="22" width="30.9822998046875" y="46" x="0" class="er attributeBoxEven"></rect><text transform="translate(5,57)" style="dominant-baseline: middle; font-size: 10.2px;" y="0" x="0" id="text-entity-Vydavatelstvi-e33cbb6d-1489-584f-8090-e582253897a0-attr-2-type" class="er entityLabel">char</text><rect height="22" width="40.69810485839844" y="46" x="30.9822998046875" class="er attributeBoxEven"></rect><text transform="translate(35.9822998046875,57)" style="dominant-baseline: middle; font-size: 10.2px;" y="0" x="0" id="text-entity-Vydavatelstvi-e33cbb6d-1489-584f-8090-e582253897a0-attr-2-name" class="er entityLabel">adresa</text><rect height="22" width="101.54653930664062" y="46" x="71.68040466308594" class="er attributeBoxEven"></rect><text transform="translate(76.68040466308594,57)" style="dominant-baseline: middle; font-size: 10.2px;" y="0" x="0" id="text-entity-Vydavatelstvi-e33cbb6d-1489-584f-8090-e582253897a0-attr-2-comment" class="er entityLabel">Adresa</text></g><rect height="14" width="64.146484375" y="248.25677490234375" x="144.81243896484375" class="er relationshipLabelBox"></rect><text style="text-anchor: middle; dominant-baseline: middle; font-size: 12px;" y="255.25677490234375" x="176.88568115234375" id="rel127" class="er relationshipLabel">má napsané</text><rect height="14" width="87.00390625" y="191.5" x="320.55303955078125" class="er relationshipLabelBox"></rect><text style="text-anchor: middle; dominant-baseline: middle; font-size: 12px;" y="198.5" x="364.05499267578125" id="rel128" class="er relationshipLabel">klasifikováno do</text><rect height="14" width="38.662109375" y="236.29306030273438" x="546.2040405273438" class="er relationshipLabelBox"></rect><text style="text-anchor: middle; dominant-baseline: middle; font-size: 12px;" y="243.29306030273438" x="565.5350952148438" id="rel129" class="er relationshipLabel">vydává</text></svg>